<svg xmlns="http://www.w3.org/2000/svg" viewBox="0 0 448 512" fill="#ffffff">
  <path d="M220.8 123.3c1 .5 1.8 1.7 3 1.7 1.1 0 2.8-.4 2.9-1.5.2-1.4-1.9-2.3-3.2-2.9-1.7-.7-3.9-1-5.5-.1-.4.2-.8.7-.6 1.1.3 1.3 2.3 1.1 3.4 1.7zm-21.9 1.7c1.2 0 2-1.2 3-1.7 1.1-.6 3.1-.4 3.5-1.6.2-.4-.2-.9-.6-1.1-1.6-.9-3.8-.6-5.5.1-1.3.6-3.4 1.5-3.2 2.9.1 1 1.8 1.5 2.8 1.4zM420 403.8c-3.6-4-5.3-11.6-7.2-19.7-1.8-8.1-3.9-16.8-10.5-22.4-1.3-1.1-2.6-2.1-4-2.9-1.3-.8-2.7-1.5-4.1-2 9.2-27.3 5.6-54.5-3.7-79.1-11.4-30.1-31.3-56.4-46.5-74.4-17.1-21.5-33.7-41.9-33.4-72C311.1 85.4 315.7.1 234.8 0 132.4-.2 158 103.4 156.9 135.2c-1.7 23.4-6.4 41.8-22.5 64.7-18.9 22.5-45.5 58.8-58.1 96.7-6 17.9-8.8 36.1-6.2 53.3-6.5 5.8-11.4 14.7-16.6 20.2-4.2 4.3-10.3 5.9-17 8.3s-14 6-18.5 14.5c-2.1 3.9-2.8 8.1-2.8 12.4 0 3.9.6 7.9 1.2 11.8 1.2 8.1 2.5 15.7.8 20.8-5.2 14.4-5.9 24.4-2.2 31.7 3.8 7.3 11.4 10.5 20.1 12.3 17.3 3.6 40.8 2.7 59.3 12.5 19.8 10.4 39.9 14.1 55.9 10.4 11.6-2.6 21.1-9.6 25.9-20.2 12.5-.1 26.3-5.4 48.3-6.6 14.9-1.2 33.6 5.3 55.1 4.1.6 2.3 1.4 4.6 2.5 6.7v.1c8.3 16.7 23.8 24.3 40.3 23 16.6-1.3 34.1-11 48.3-27.9 13.6-16.4 36-23.2 50.9-32.2 7.4-4.5 13.4-10.1 13.9-18.3.4-8.2-4.4-17.3-15.5-29.7zM223.7 87.3c9.8-22.2 34.2-21.8 44-.4 6.5 14.2 3.6 30.9-4.3 40.4-1.6-.8-5.9-2.6-12.6-4.9 1.1-1.2 3.1-2.7 3.9-4.6 4.8-11.8-.2-27-9.1-27.3-7.3-.5-13.9 10.8-11.8 23-4.1-2-9.4-3.5-13-4.4-1-6.9-.3-14.6 2.9-21.8zM183 75.8c10.1 0 20.8 14.2 19.1 33.5-3.5 1-7.1 2.5-10.2 4.6 1.2-8.9-3.3-20.1-9.6-19.6-8.4.7-9.8 21.2-1.8 28.1 1 .8 1.9-.2-5.9 5.5-15.6-14.6-10.5-52.1 8.4-52.1zm-13.6 60.7c6.2-4.6 13.6-10 14.1-10.5 4.7-4.4 13.5-14.2 27.9-14.2 7.1 0 15.6 2.3 25.9 8.9 6.3 4.1 11.3 4.4 22.6 9.3 8.4 3.5 13.7 9.7 10.5 18.2-2.6 7.1-11 14.4-22.7 18.1-11.1 3.6-19.8 16-38.2 14.9-3.9-.2-7-1-9.6-2.1-8-3.5-12.2-10.4-20-15-8.6-4.8-13.2-10.4-14.7-15.3-1.4-4.9 0-9 4.2-12.3zm3.3 334c-2.7 35.1-43.9 34.4-75.3 18-29.9-15.8-68.6-6.5-76.5-21.9-2.4-4.7-2.4-12.7 2.6-26.4v-.2c2.4-7.6.6-16-.6-23.9-1.2-7.8-1.8-15 .9-20 3.5-6.7 8.5-9.1 14.8-11.3 10.3-3.7 11.8-3.4 19.6-9.9 5.5-5.7 9.5-12.9 14.3-18 5.1-5.5 10-8.1 17.7-6.9 8.1 1.2 15.1 6.8 21.9 16l19.6 35.6c9.5 19.9 43.1 48.4 41 68.9zm-30.5-12.4c-1.6-7.2-1.4-14.4.3-21.4 4.5 6.3 9.2 13.9 17.3 21.1-3.3.2-6.6 0-9.7-.8l-7.9.9v.2zm15.4-23.9c-7.3-5.8-12-12.1-15.4-17.4 7-5.4 16.8-6 23.3.4 4.4 4.3 6.3 9.8 7.4 14.8-2.4.8-4.7 1.5-7.1 1.9-2.7.4-5.3.5-8.2.3zm39.1-18.9c-1.2-1.8-2.4-3.6-3.8-5.3-9.7-12.1-24.1-23.4-32-31.4-5-5.1-8.5-10.3-10-15.1-2.1-6.9-1.7-13.5 3.6-18.6 5.5-5.2 14.2-4.6 24.4 3.5 12.2 9.7 25.2 26.5 30.4 43.8 4.6 15.3 3.5 30.7-12.6 23.1zm-61.1 43.7c-24.2-7-39.7-40-43.3-60.4-.2-1.1-.4-2.3-.6-3.4.9.9 1.9 1.9 2.9 2.7 9.5 8.5 20.3 14.5 29.1 16.7 13.9 3.4 20.7 12.1 33.4 17.8 4.3 1.9 9.3 3.3 14.2 4.2-.5 2.2-1.2 4.5-2.1 6.7-6.2 14.6-18 21.1-33.6 15.7zm9.7 48.8c-1.6 2-3.5 3.7-5.6 5.2-9.5 7-20.6 9.4-26.6 4.9-6.1-4.5-6.5-15.7-.8-25.1 4.5-7.4 9.1-12 13.3-14.5 10.7 5.7 13.1 19.5 19.7 29.5zm5.8-4c-4.6-8.4-7.5-19.5-16.4-25.6 16.2 1.3 26.8 7.6 36.5 5.8 3 5.6 4.6 12.4 4.7 19.3-8.3 5.4-16.9 6.3-24.8.5zm33-11c-1.1-6.9-2.6-14.3-7-20.6 7.5-1.3 14.8-4.6 20.4-9.3l6.5 4.9c5.1 4 11.1 8.4 13.4 15.2 2.4 6.9.5 14-6.1 20.2-6.7 6.3-14.9 9.6-23 7.1-4.7-1.4-6.6-9.4-4.2-17.5zm-211-170.8c3.3 8 12.9 14.3 21.4 15 6.1.5 12.4-.6 18.8-2.3 9.6-2.5 18.6-6.2 26.5-11.7-1 9.4-1.6 18.9 1.9 28.3l2.4 6.2c-5.3 4-9.7 10.4-14.2 16.4-6 8.1-13 14.4-22.9 16.2-17.6 3.2-38.7-10.2-46.5-28.7-7.2-17.2-3.5-33.8 12.6-39.4zm-5.8-74.6c10.7.5 21.4 5 31.4 10.4 11.2 5.9 21.5 13.2 30.8 21.4 11.9 10.4 21.6 22.6 26.5 36.4 4.9 13.9 4.5 29.4-4.2 44.2-3.1-3.2-7-6-11.9-7.3-2.2-.6-4.6-1-7.1-1.2 4.2-15.2-1.3-31.6-11.5-44.7-6.7-8.5-15.3-15.3-25.5-19.4-3.6-1.4-7.4-2.4-11.3-3-3.8-.6-7.8-.8-11.7-.5-7.2.6-14 2.5-20.1 5.5-6.1 3.1-11.4 7.3-15.8 12.5-9 10.6-13.9 24.4-14.1 38.8-4.9 1.4-9.3 4-13.2 7.4-1.9-8.8-1.8-18.4.2-27.8 6.3-29.6 33-73.1 57.5-72.7zM35.7 290.5c2.1-5.5 5.4-10.1 9.7-13.6 4.3-3.6 9.7-6.2 15.9-7.4 6.1-1.2 13.1-.9 20.1 1.1 7 2 14 5.4 20.9 10.7-5 4.7-10.3 8.1-16.1 10.4-5.8 2.2-12.1 3.3-18.8 3.1-6.7-.2-13.7-1.6-20.4-4.5-4.7-2.1-9.1-4.9-11.3.2zm6.7 116.7c2.2-4.1 5.7-6.8 10.1-8.5 4.4-1.7 9.8-2.4 15.7-2.4 2.7 0 5.5.2 8.4.5-2.4 3.6-4.8 7.5-7.1 11.5-3.6 6.5-6.3 13-7.2 18.6-1.5 9.2.5 16.5 5.3 21.3 7.8 7.7 21.4 4.2 34.4-4.6 4.2 8.6 9.9 15 16.8 18.7-18.9 20.5-37.7 24.1-48.4 21.4-12.2-3.1-17.6-13.1-16.7-26.2 1.1-15.1 12.5-24.4 14.9-36.7.6-3.2.5-6.1-.6-8.7-2.3-5.4-8.4-7.7-17.8-6.4l-7.8 1.5zm50.7 36.8c1.9-5.8 3.9-11.8 7.3-17.1 3.3-5.2 7.5-9.9 12.5-13.6 10.3 9.6 21.4 17.2 32.2 20.1 7.9 2.1 16.2 1.8 24.4-1.7 4.4-1.9 8.4-4.8 11.8-8.8-2.3 6.9-4.9 14.5-8.3 21.5-4.9 10.1-11.4 18.8-19.6 24.4-12.2 8.3-26.7 9.6-40 2.6-13.2-6.9-17.6-18.2-20.3-27.4z"/>
</svg>
